<?xml version="1.0" encoding="UTF-8" standalone="no"?>
<!-- Created with Inkscape (http://www.inkscape.org/) -->

<svg
   xmlns:dc="http://purl.org/dc/elements/1.1/"
   xmlns:cc="http://creativecommons.org/ns#"
   xmlns:rdf="http://www.w3.org/1999/02/22-rdf-syntax-ns#"
   xmlns:svg="http://www.w3.org/2000/svg"
   xmlns="http://www.w3.org/2000/svg"
   xmlns:sodipodi="http://sodipodi.sourceforge.net/DTD/sodipodi-0.dtd"
   xmlns:inkscape="http://www.inkscape.org/namespaces/inkscape"
   width="744.09003"
   height="744.09448"
   id="svg2"
   version="1.1"
   inkscape:version="0.48.4 r9939"
   sodipodi:docname="drawing-1.svg">
  <defs
     id="defs4">
    <inkscape:perspective
       sodipodi:type="inkscape:persp3d"
       inkscape:vp_x="-51.428571 : 417.75929 : 1"
       inkscape:vp_y="0 : 1000 : 0"
       inkscape:vp_z="478.38019 : 412.04501 : 1"
       inkscape:persp3d-origin="372.04724 : 248.03001 : 1"
       id="perspective3070" />
  </defs>
  <sodipodi:namedview
     id="base"
     pagecolor="#ffffff"
     bordercolor="#666666"
     borderopacity="1.0"
     inkscape:pageopacity="1"
     inkscape:pageshadow="2"
     inkscape:zoom="0.35"
     inkscape:cx="375"
     inkscape:cy="367.18735"
     inkscape:document-units="px"
     inkscape:current-layer="layer2"
     showgrid="false"
     inkscape:window-width="1301"
     inkscape:window-height="744"
     inkscape:window-x="65"
     inkscape:window-y="24"
     inkscape:window-maximized="1" />
  <metadata
     id="metadata7">
    <rdf:RDF>
      <cc:Work
         rdf:about="">
        <dc:format>image/svg+xml</dc:format>
        <dc:type
           rdf:resource="http://purl.org/dc/dcmitype/StillImage" />
        <dc:title></dc:title>
      </cc:Work>
    </rdf:RDF>
  </metadata>
  <g
     inkscape:label="Layer 1"
     inkscape:groupmode="layer"
     id="layer1"
     transform="translate(0,-308.26772)" />
  <g
     inkscape:groupmode="layer"
     id="layer2"
     inkscape:label="Layer"
     transform="translate(0,-308.26772)">
    <path
       sodipodi:type="arc"
       style="fill:#ff0000"
       id="path2992"
       sodipodi:cx="180"
       sodipodi:cy="168.37575"
       sodipodi:rx="100"
       sodipodi:ry="98.571426"
       d="m 280,168.37575 c 0,54.43949 -44.77153,98.57142 -100,98.57142 -55.22847,0 -100,-44.13193 -100,-98.57142 0,-54.4395 44.77153,-98.571429 100,-98.571429 55.22847,0 100,44.131929 100,98.571429 z"
       transform="translate(0,308.27218)" />
    <path
       sodipodi:type="arc"
       style="fill:#ff0000"
       id="path2994"
       sodipodi:cx="154.28572"
       sodipodi:cy="138.37575"
       sodipodi:rx="20"
       sodipodi:ry="14.285714"
       d="m 174.28572,138.37575 c 0,7.88978 -8.9543,14.28571 -20,14.28571 -11.04569,0 -20,-6.39593 -20,-14.28571 0,-7.88978 8.95431,-14.28572 20,-14.28572 11.0457,0 20,6.39594 20,14.28572 z"
       transform="translate(0,308.27218)" />
    <path
       sodipodi:type="arc"
       style="fill:#2b0000"
       id="path3002"
       sodipodi:cx="154.28572"
       sodipodi:cy="136.94717"
       sodipodi:rx="20"
       sodipodi:ry="18.571428"
       d="m 174.28572,136.94717 c 0,10.25672 -8.9543,18.57143 -20,18.57143 -11.04569,0 -20,-8.31471 -20,-18.57143 0,-10.25671 8.95431,-18.57142 20,-18.57142 11.0457,0 20,8.31471 20,18.57142 z"
       transform="translate(0,308.27218)" />
    <path
       sodipodi:type="arc"
       style="fill:#2b0000"
       id="path3004"
       sodipodi:cx="221.42857"
       sodipodi:cy="141.23288"
       sodipodi:rx="18.571428"
       sodipodi:ry="17.142857"
       d="m 240,141.23288 c 0,9.46774 -8.31471,17.14286 -18.57143,17.14286 -10.25671,0 -18.57142,-7.67512 -18.57142,-17.14286 0,-9.46774 8.31471,-17.14286 18.57142,-17.14286 10.25672,0 18.57143,7.67512 18.57143,17.14286 z"
       transform="translate(0,308.27218)" />
    <path
       sodipodi:type="arc"
       style="fill:#2b0000"
       id="path3006"
       sodipodi:cx="157.14285"
       sodipodi:cy="201.23288"
       sodipodi:rx="17.142857"
       sodipodi:ry="20"
       d="m 174.28571,201.23288 c 0,11.04569 -7.67512,20 -17.14286,20 -9.46774,0 -17.14285,-8.95431 -17.14285,-20 0,-11.0457 7.67511,-20 17.14285,-20 9.46774,0 17.14286,8.9543 17.14286,20 z"
       transform="translate(0,308.27218)" />
    <path
       sodipodi:type="arc"
       style="fill:#2b0000"
       id="path3008"
       sodipodi:cx="215.71428"
       sodipodi:cy="202.66145"
       sodipodi:rx="15.714286"
       sodipodi:ry="21.428572"
       d="m 231.42857,202.66145 c 0,11.83468 -7.03553,21.42857 -15.71429,21.42857 -8.67876,0 -15.71429,-9.59389 -15.71429,-21.42857 0,-11.83467 7.03553,-21.42857 15.71429,-21.42857 8.67876,0 15.71429,9.5939 15.71429,21.42857 z"
       transform="translate(0,308.27218)" />
    <path
       sodipodi:type="arc"
       style="fill:#808000"
       id="path3012"
       sodipodi:cx="275.71429"
       sodipodi:cy="319.80432"
       sodipodi:rx="92.85714"
       sodipodi:ry="87.14286"
       d="m 368.57143,319.80432 c 0,48.12767 -41.57355,87.14286 -92.85714,87.14286 -51.28358,0 -92.85714,-39.01519 -92.85714,-87.14286 0,-48.12767 41.57356,-87.14286 92.85714,-87.14286 51.28359,0 92.85714,39.01519 92.85714,87.14286 z"
       transform="translate(0,308.27218)" />
    <path
       sodipodi:type="arc"
       style="fill:#808000"
       id="path3014"
       sodipodi:cx="245.71428"
       sodipodi:cy="292.66147"
       sodipodi:rx="22.857143"
       sodipodi:ry="20"
       d="m 268.57142,292.66147 c 0,11.04569 -10.23349,20 -22.85714,20 -12.62365,0 -22.85714,-8.95431 -22.85714,-20 0,-11.0457 10.23349,-20 22.85714,-20 12.62365,0 22.85714,8.9543 22.85714,20 z"
       transform="translate(0,308.27218)" />
    <path
       sodipodi:type="arc"
       style="fill:#2b0000"
       id="path3036"
       sodipodi:cx="251.42857"
       sodipodi:cy="296.94717"
       sodipodi:rx="17.142857"
       sodipodi:ry="15.714286"
       d="m 268.57143,296.94717 c 0,8.67876 -7.67512,15.71429 -17.14286,15.71429 -9.46773,0 -17.14285,-7.03553 -17.14285,-15.71429 0,-8.67876 7.67512,-15.71428 17.14285,-15.71428 9.46774,0 17.14286,7.03552 17.14286,15.71428 z"
       transform="translate(0,308.27218)" />
    <path
       sodipodi:type="arc"
       style="fill:#2b0000"
       id="path3038"
       sodipodi:cx="308.57144"
       sodipodi:cy="302.66147"
       sodipodi:rx="14.285714"
       sodipodi:ry="12.857142"
       d="m 322.85716,302.66147 c 0,7.1008 -6.39594,12.85714 -14.28572,12.85714 -7.88978,0 -14.28571,-5.75634 -14.28571,-12.85714 0,-7.10081 6.39593,-12.85714 14.28571,-12.85714 7.88978,0 14.28572,5.75633 14.28572,12.85714 z"
       transform="translate(0,308.27218)" />
    <path
       sodipodi:type="arc"
       style="fill:#2b0000"
       id="path3040"
       sodipodi:cx="258.57144"
       sodipodi:cy="354.09003"
       sodipodi:rx="15.714286"
       sodipodi:ry="15.714286"
       d="m 274.28573,354.09003 c 0,8.67876 -7.03553,15.71428 -15.71429,15.71428 -8.67876,0 -15.71428,-7.03552 -15.71428,-15.71428 0,-8.67876 7.03552,-15.71429 15.71428,-15.71429 8.67876,0 15.71429,7.03553 15.71429,15.71429 z"
       transform="translate(0,308.27218)" />
    <path
       sodipodi:type="arc"
       style="fill:#2b0000"
       id="path3042"
       sodipodi:cx="310"
       sodipodi:cy="349.80432"
       sodipodi:rx="12.857142"
       sodipodi:ry="14.285714"
       d="m 322.85714,349.80432 c 0,7.88978 -5.75634,14.28572 -12.85714,14.28572 -7.1008,0 -12.85714,-6.39594 -12.85714,-14.28572 0,-7.88978 5.75634,-14.28571 12.85714,-14.28571 7.1008,0 12.85714,6.39593 12.85714,14.28571 z"
       transform="translate(0,308.27218)" />
    <path
       sodipodi:type="arc"
       style="fill:#ffff00"
       id="path3044"
       sodipodi:cx="320"
       sodipodi:cy="189.80431"
       sodipodi:rx="71.428574"
       sodipodi:ry="68.571426"
       d="m 391.42857,189.80431 c 0,37.87095 -31.97966,68.57142 -71.42857,68.57142 -39.44891,0 -71.42857,-30.70047 -71.42857,-68.57142 0,-37.87096 31.97966,-68.57143 71.42857,-68.57143 39.44891,0 71.42857,30.70047 71.42857,68.57143 z"
       transform="translate(0,308.27218)" />
    <path
       sodipodi:type="arc"
       style="fill:#2b0000"
       id="path3046"
       sodipodi:cx="291.42856"
       sodipodi:cy="164.09003"
       sodipodi:rx="17.142857"
       sodipodi:ry="17.142857"
       d="m 308.57141,164.09003 c 0,9.46774 -7.67511,17.14285 -17.14285,17.14285 -9.46774,0 -17.14286,-7.67511 -17.14286,-17.14285 0,-9.46774 7.67512,-17.14286 17.14286,-17.14286 9.46774,0 17.14285,7.67512 17.14285,17.14286 z"
       transform="translate(0,308.27218)" />
    <path
       sodipodi:type="arc"
       style="fill:#2b0000"
       id="path3048"
       sodipodi:cx="340"
       sodipodi:cy="164.09003"
       sodipodi:rx="17.142857"
       sodipodi:ry="17.142857"
       d="m 357.14286,164.09003 c 0,9.46774 -7.67512,17.14285 -17.14286,17.14285 -9.46774,0 -17.14286,-7.67511 -17.14286,-17.14285 0,-9.46774 7.67512,-17.14286 17.14286,-17.14286 9.46774,0 17.14286,7.67512 17.14286,17.14286 z"
       transform="translate(0,308.27218)" />
    <path
       sodipodi:type="arc"
       style="fill:#2b0000"
       id="path3050"
       sodipodi:cx="295.71429"
       sodipodi:cy="221.23288"
       sodipodi:rx="18.571428"
       sodipodi:ry="14.285714"
       d="m 314.28572,221.23288 c 0,7.88978 -8.31471,14.28571 -18.57143,14.28571 -10.25671,0 -18.57142,-6.39593 -18.57142,-14.28571 0,-7.88978 8.31471,-14.28571 18.57142,-14.28571 10.25672,0 18.57143,6.39593 18.57143,14.28571 z"
       transform="translate(0,308.27218)" />
    <path
       sodipodi:type="arc"
       style="fill:#2b0000"
       id="path3052"
       sodipodi:cx="347.14285"
       sodipodi:cy="212.66145"
       sodipodi:rx="15.714286"
       sodipodi:ry="17.142857"
       d="m 362.85714,212.66145 c 0,9.46774 -7.03553,17.14286 -15.71429,17.14286 -8.67876,0 -15.71428,-7.67512 -15.71428,-17.14286 0,-9.46774 7.03552,-17.14285 15.71428,-17.14285 8.67876,0 15.71429,7.67511 15.71429,17.14285 z"
       transform="translate(0,308.27218)" />
    <g
       sodipodi:type="inkscape:box3d"
       style="fill:#2b0000"
       id="g3072"
       inkscape:perspectiveID="#perspective3070"
       inkscape:corner0="4.4256889 : 0.040436989 : 0 : 1"
       inkscape:corner7="-0.13188977 : -0.032403144 : 0.25 : 1">
      <path
         sodipodi:type="inkscape:box3dside"
         id="path3082"
         style="fill:#afafde;fill-rule:evenodd;stroke:none"
         inkscape:box3dsidetype="13"
         d="M 26.621575,671.85762 436.38484,867.4448 445.77464,816.66099 46.52042,670.46834 z" />
      <path
         sodipodi:type="inkscape:box3dside"
         id="path3074"
         style="fill:#353564;fill-rule:evenodd;stroke:none"
         inkscape:box3dsidetype="6"
         d="m 26.621575,658.43257 0,13.42505 19.898845,-1.38928 0,-12.83371 z" />
      <path
         sodipodi:type="inkscape:box3dside"
         id="path3084"
         style="fill:#e9e9ff;fill-rule:evenodd;stroke:none"
         inkscape:box3dsidetype="11"
         d="m 46.52042,657.63463 399.25422,93.88061 0,65.14575 L 46.52042,670.46834 z" />
      <path
         sodipodi:type="inkscape:box3dside"
         id="path3076"
         style="fill:#4d4d9f;fill-rule:evenodd;stroke:none"
         inkscape:box3dsidetype="5"
         d="M 26.621575,658.43257 436.38484,783.53826 445.77464,751.51524 46.52042,657.63463 z" />
      <path
         sodipodi:type="inkscape:box3dside"
         id="path3080"
         style="fill:#d7d7ff;fill-rule:evenodd;stroke:none"
         inkscape:box3dsidetype="14"
         d="m 436.38484,783.53826 0,83.90654 9.3898,-50.78381 0,-65.14575 z" />
      <path
         sodipodi:type="inkscape:box3dside"
         id="path3078"
         style="fill:#8686bf;fill-rule:evenodd;stroke:none"
         inkscape:box3dsidetype="3"
         d="m 26.621575,658.43257 409.763265,125.10569 0,83.90654 L 26.621575,671.85762 z" />
    </g>
    <g
       sodipodi:type="inkscape:box3d"
       style="fill:#2b0000"
       id="g3100"
       inkscape:perspectiveID="#perspective3070"
       inkscape:corner0="-0.14891154 : 0.39827034 : 0 : 1"
       inkscape:corner7="-0.21080888 : -0.17185445 : 0.098267129 : 1">
      <path
         sodipodi:type="inkscape:box3dside"
         id="path3112"
         style="fill:#e9e9ff;fill-rule:evenodd;stroke:none"
         inkscape:box3dsidetype="11"
         d="m 449.47815,394.46157 34.93662,-16.74909 0,642.42432 -34.93662,-25.13651 z" />
      <path
         sodipodi:type="inkscape:box3dside"
         id="path3108"
         style="fill:#d7d7ff;fill-rule:evenodd;stroke:none"
         inkscape:box3dsidetype="14"
         d="m 485.16618,345.01393 0,722.41667 -0.75141,-47.2938 0,-642.42432 z" />
      <path
         sodipodi:type="inkscape:box3dside"
         id="path3110"
         style="fill:#afafde;fill-rule:evenodd;stroke:none"
         inkscape:box3dsidetype="13"
         d="m 446.14111,1035.9522 39.02507,31.4784 -0.75141,-47.2938 -34.93662,-25.13651 z" />
      <path
         sodipodi:type="inkscape:box3dside"
         id="path3102"
         style="fill:#353564;fill-rule:evenodd;stroke:none"
         inkscape:box3dsidetype="6"
         d="m 446.14111,366.07494 0,669.87726 3.33704,-40.95191 0,-600.53872 z" />
      <path
         sodipodi:type="inkscape:box3dside"
         id="path3104"
         style="fill:#4d4d9f;fill-rule:evenodd;stroke:none"
         inkscape:box3dsidetype="5"
         d="m 446.14111,366.07494 39.02507,-21.06101 -0.75141,32.69855 -34.93662,16.74909 z" />
      <path
         sodipodi:type="inkscape:box3dside"
         id="path3106"
         style="fill:#8686bf;fill-rule:evenodd;stroke:none"
         inkscape:box3dsidetype="3"
         d="m 446.14111,366.07494 39.02507,-21.06101 0,722.41667 -39.02507,-31.4784 z" />
    </g>
    <g
       sodipodi:type="inkscape:box3d"
       style="fill:#2b0000"
       id="g3128"
       inkscape:perspectiveID="#perspective3070"
       inkscape:corner0="-0.10195494 : 0.036222746 : 0 : 1"
       inkscape:corner7="-0.48326772 : -0.023941327 : 0.25 : 1">
      <path
         sodipodi:type="inkscape:box3dside"
         id="path3140"
         style="fill:#e9e9ff;fill-rule:evenodd;stroke:none"
         inkscape:box3dsidetype="11"
         d="m 432.81026,752.13759 240.8226,58.45257 0,78.46817 -240.8226,-84.51507 z" />
      <path
         sodipodi:type="inkscape:box3dside"
         id="path3136"
         style="fill:#d7d7ff;fill-rule:evenodd;stroke:none"
         inkscape:box3dsidetype="14"
         d="m 768.09796,892.96985 0,116.43185 -94.4651,-120.34337 0,-78.46817 z" />
      <path
         sodipodi:type="inkscape:box3dside"
         id="path3138"
         style="fill:#afafde;fill-rule:evenodd;stroke:none"
         inkscape:box3dsidetype="13"
         d="M 420.12439,850.26092 768.09796,1009.4017 673.63286,889.05833 432.81026,804.54326 z" />
      <path
         sodipodi:type="inkscape:box3dside"
         id="path3130"
         style="fill:#353564;fill-rule:evenodd;stroke:none"
         inkscape:box3dsidetype="6"
         d="m 420.12439,783.26643 0,66.99449 12.68587,-45.71766 0,-52.40567 z" />
      <path
         sodipodi:type="inkscape:box3dside"
         id="path3132"
         style="fill:#4d4d9f;fill-rule:evenodd;stroke:none"
         inkscape:box3dsidetype="5"
         d="m 420.12439,783.26643 347.97357,109.70342 -94.4651,-82.37969 -240.8226,-58.45257 z" />
      <path
         sodipodi:type="inkscape:box3dside"
         id="path3134"
         style="fill:#8686bf;fill-rule:evenodd;stroke:none"
         inkscape:box3dsidetype="3"
         d="m 420.12439,783.26643 347.97357,109.70342 0,116.43185 -347.97357,-159.14078 z" />
    </g>
    <g
       sodipodi:type="inkscape:box3d"
       style="fill:#2b0000"
       id="g3142"
       inkscape:perspectiveID="#perspective3070"
       inkscape:corner0="-0.07168109 : 0.39861798 : 0 : 1"
       inkscape:corner7="-0.21080889 : -0.22229583 : 0.25 : 1">
      <path
         sodipodi:type="inkscape:box3dside"
         id="path3154"
         style="fill:#e9e9ff;fill-rule:evenodd;stroke:none"
         inkscape:box3dsidetype="11"
         d="m 420.369,441.56508 63.16467,-25.84407 0,597.49719 -63.16467,-44.70425 z" />
      <path
         sodipodi:type="inkscape:box3dside"
         id="path3150"
         style="fill:#d7d7ff;fill-rule:evenodd;stroke:none"
         inkscape:box3dsidetype="14"
         d="m 485.16618,344.57342 0,786.77248 -1.63251,-118.1277 0,-597.49719 z" />
      <path
         sodipodi:type="inkscape:box3dside"
         id="path3152"
         style="fill:#afafde;fill-rule:evenodd;stroke:none"
         inkscape:box3dsidetype="13"
         d="m 404.74636,1056.8986 80.41982,74.4473 -1.63251,-118.1277 -63.16467,-44.70425 z" />
      <path
         sodipodi:type="inkscape:box3dside"
         id="path3144"
         style="fill:#353564;fill-rule:evenodd;stroke:none"
         inkscape:box3dsidetype="6"
         d="m 404.74636,388.04034 0,668.85826 15.62264,-88.38465 0,-526.94887 z" />
      <path
         sodipodi:type="inkscape:box3dside"
         id="path3146"
         style="fill:#4d4d9f;fill-rule:evenodd;stroke:none"
         inkscape:box3dsidetype="5"
         d="m 404.74636,388.04034 80.41982,-43.46692 -1.63251,71.14759 -63.16467,25.84407 z" />
      <path
         sodipodi:type="inkscape:box3dside"
         id="path3148"
         style="fill:#8686bf;fill-rule:evenodd;stroke:none"
         inkscape:box3dsidetype="3"
         d="m 404.74636,388.04034 80.41982,-43.46692 0,786.77248 -80.41982,-74.4473 z" />
    </g>
  </g>
</svg>
