<?xml version="1.0" ?><!DOCTYPE svg  PUBLIC '-//W3C//DTD SVG 1.1//EN'  'http://www.w3.org/Graphics/SVG/1.1/DTD/svg11.dtd' [
	<!ENTITY stroke_color "#666666">
	<!ENTITY fill_color "#ffffff">
]><svg height="72.000000pt" id="svg2" inkscape:version="0.48.4 r9939" preserveAspectRatio="xMidYMid meet" sodipodi:docname="A6Shl4y501.svg" version="1.0" viewBox="0 0 72.000000 72.000000" width="72.000000pt" xmlns="http://www.w3.org/2000/svg" xmlns:cc="http://creativecommons.org/ns#" xmlns:dc="http://purl.org/dc/elements/1.1/" xmlns:inkscape="http://www.inkscape.org/namespaces/inkscape" xmlns:rdf="http://www.w3.org/1999/02/22-rdf-syntax-ns#" xmlns:sodipodi="http://sodipodi.sourceforge.net/DTD/sodipodi-0.dtd" xmlns:svg="http://www.w3.org/2000/svg">
  <defs id="defs50"/>
  <sodipodi:namedview bordercolor="#666666" borderopacity="1" gridtolerance="10" guidetolerance="10" id="namedview48" inkscape:current-layer="svg2" inkscape:cx="45" inkscape:cy="45" inkscape:pageopacity="0" inkscape:pageshadow="2" inkscape:window-height="744" inkscape:window-maximized="1" inkscape:window-width="1301" inkscape:window-x="65" inkscape:window-y="24" inkscape:zoom="2.6222222" objecttolerance="10" pagecolor="#ffffff" showgrid="false"/>
  <metadata id="metadata4">
Created by potrace 1.10, written by Peter Selinger 2001-2011
<rdf:RDF>
  <cc:Work rdf:about="">
    <dc:format>image/svg+xml</dc:format>
    <dc:type rdf:resource="http://purl.org/dc/dcmitype/StillImage"/>
  </cc:Work>
</rdf:RDF>
</metadata>
  <g fill="&stroke_color;" id="g6" stroke="none" transform="translate(0.000000,72.000000) scale(0.100000,-0.100000)">
    <path d="M89 712 c-22 -2 -45 -12 -59 -26 -21 -24 -22 -28 -21 -337 1 -306 2 -314 22 -331 19 -16 51 -18 331 -18 l309 0 24 25 25 24 0 306 0 306 -25 24 c-13 14 -37 25 -52 26 -81 3 -523 4 -554 1z m584 -47 c21 -20 27 -35 27 -67 0 -40 0 -41 -20 -23 -11 10 -20 28 -20 39 0 17 2 18 10 6 5 -8 12 -11 16 -7 9 8 1 18 -18 21 -7 1 -19 5 -25 9 -7 5 -19 0 -30 -12 -14 -17 -20 -18 -32 -8 -14 11 -14 10 -2 -6 13 -17 15 -17 36 3 12 11 25 17 28 13 12 -11 8 -23 -8 -23 -7 0 -18 -8 -24 -17 -9 -17 -12 -16 -42 6 -48 36 -118 40 -161 10 -18 -13 -35 -27 -37 -32 -2 -5 -8 -3 -13 4 -7 11 -8 11 -6 -1 1 -8 -2 -26 -7 -40 l-9 -25 -7 25 c-12 42 -11 72 4 64 7 -5 6 2 -4 16 -38 60 -156 80 -219 38 -18 -13 -40 -34 -49 -48 l-15 -25 27 24 c15 14 27 19 27 13 0 -7 -4 -12 -8 -12 -5 0 -15 -18 -22 -41 -19 -56 1 -114 50 -147 32 -21 42 -23 110 -17 135 13 146 12 194 -23 24 -18 49 -32 55 -32 6 0 11 -5 11 -11 0 -5 -4 -7 -10 -4 -6 4 -10 -16 -10 -52 0 -55 -2 -60 -40 -91 -62 -51 -91 -58 -142 -33 -45 22 -108 95 -108 125 0 28 27 72 55 90 15 10 24 20 22 23 -3 2 -17 -3 -30 -12 -34 -22 -89 -7 -134 37 -18 17 -33 27 -33 22 0 -17 73 -81 105 -92 18 -6 23 -11 12 -11 -30 -2 -81 25 -115 60 l-33 34 3 106 c3 107 10 127 48 141 8 3 139 6 290 7 l275 1 28 -25z m-401 -47 c37 -25 55 -86 39 -126 -55 -132 -247 -89 -228 51 12 90 111 130 189 75z m44 -6 c-4 -3 -14 2 -24 12 -16 18 -16 18 6 6 13 -6 21 -14 18 -18z m234 -19 c28 -16 48 -48 37 -60 -3 -2 -1 -19 4 -36 13 -44 -4 -80 -47 -100 -49 -24 -82 -21 -135 12 -51 32 -66 70 -48 118 31 82 114 111 189 66z m120 -23 l27 -19 2 -202 c1 -182 0 -201 -14 -195 -9 3 -23 6 -31 6 -11 0 -13 6 -8 23 4 12 8 31 9 42 1 14 8 19 21 17 15 -3 17 -1 7 9 -14 14 -18 59 -5 59 4 0 8 30 9 68 1 81 0 78 -32 -73 -46 -218 -58 -257 -82 -268 -21 -9 -60 -3 -119 20 -8 3 -14 -1 -14 -10 0 -10 12 -17 33 -20 17 -2 -62 -5 -177 -5 l-210 -2 -28 27 c-26 25 -28 32 -27 97 1 60 2 66 10 41 5 -16 8 -45 5 -62 -3 -18 -1 -33 3 -33 4 0 13 -11 20 -24 11 -21 19 -23 52 -19 28 4 39 2 39 -8 0 -10 3 -10 12 -1 15 15 51 15 66 0 9 -9 12 -9 12 0 0 9 15 12 51 10 46 -3 53 -1 60 20 6 16 5 21 -2 16 -6 -3 -73 11 -149 31 -147 41 -160 49 -160 110 0 24 3 25 65 25 55 0 65 -3 65 -17 0 -29 37 -82 72 -103 47 -28 125 -27 169 3 42 28 69 79 69 132 0 60 10 85 35 91 54 13 99 92 84 146 -8 29 8 88 24 88 5 0 21 -9 37 -20z m-327 -102 c4 -28 2 -36 -8 -32 -7 3 -16 1 -20 -5 -3 -6 -12 -11 -20 -11 -9 0 -6 9 10 26 14 15 25 36 25 47 0 30 6 17 13 -25z m-247 -116 c16 -11 41 -24 55 -27 21 -5 25 -11 21 -34 -4 -27 -6 -28 -37 -21 -19 4 -37 5 -42 1 -4 -3 -1 2 6 12 12 15 12 17 -3 11 -9 -3 -23 -1 -31 6 -12 10 -15 9 -15 -4 0 -9 8 -16 18 -17 15 0 15 -1 -2 -8 -11 -4 -23 -16 -27 -27 -4 -11 -8 22 -8 76 -1 91 0 94 17 74 9 -11 31 -30 48 -42z m564 -237 c0 -20 -23 -55 -36 -55 -4 0 1 31 13 73 6 24 23 11 23 -18z m-370 -43 c29 -9 16 -10 -80 -10 -124 0 -150 9 -150 53 l0 23 98 -28 c53 -15 113 -32 132 -38z m410 36 c0 -18 -6 -40 -13 -49 -27 -35 -103 -55 -91 -24 4 9 12 14 18 13 7 -2 27 9 45 25 18 15 28 27 22 27 -6 0 -11 9 -11 20 0 11 7 20 15 20 10 0 15 -10 15 -32z" id="path8"/>
    <path d="M333 639 c31 -36 57 -53 40 -26 -11 18 -13 37 -3 37 5 0 13 -7 18 -16 6 -11 11 -13 16 -5 4 6 4 11 -1 12 -4 0 1 4 12 9 14 6 3 9 -40 9 -42 1 -55 4 -45 11 12 7 10 9 -7 7 -21 -1 -20 -3 10 -38z" id="path10"/>
    <path d="M444 651 c3 -5 22 -7 41 -4 20 3 42 0 49 -6 9 -8 13 -7 13 4 0 11 -13 15 -54 15 -30 0 -52 -4 -49 -9z" id="path12"/>
    <path d="M576 651 c-4 -5 1 -8 9 -7 21 3 31 16 12 16 -9 0 -18 -4 -21 -9z" id="path14"/>
    <path d="M269 377 c-31 -21 -33 -27 -37 -85 -3 -58 -2 -64 26 -92 25 -25 39 -30 77 -30 38 0 52 5 77 30 26 26 29 36 26 73 -3 23 -8 51 -13 62 -8 18 -7 19 11 5 18 -14 18 -13 -1 9 -23 27 -73 51 -108 51 -13 0 -39 -10 -58 -23z m131 -42 c11 -12 23 -38 27 -58 5 -32 1 -40 -27 -67 -44 -41 -91 -41 -131 -1 -33 33 -37 67 -14 111 26 50 104 59 145 15z" id="path16"/>
    <path d="M295 310 c-9 -15 -1 -23 21 -18 15 3 16 4 1 16 -11 9 -17 10 -22 2z" id="path18"/>
    <path d="M347 314 c-13 -13 -7 -24 14 -24 11 0 19 5 17 12 -5 14 -22 21 -31 12z" id="path20"/>
    <path d="M290 250 c0 -5 9 -10 20 -10 11 0 20 5 20 10 0 6 -9 10 -20 10 -11 0 -20 -4 -20 -10z" id="path22"/>
    <path d="M340 250 c0 -5 9 -10 20 -10 11 0 20 5 20 10 0 6 -9 10 -20 10 -11 0 -20 -4 -20 -10z" id="path24"/>
    <path d="M147 573 c-13 -12 -7 -23 13 -23 11 0 20 7 20 15 0 15 -21 21 -33 8z" id="path26"/>
    <path d="M210 566 c0 -10 9 -16 21 -16 24 0 21 23 -4 28 -10 2 -17 -3 -17 -12z" id="path28"/>
    <path d="M143 496 c6 -17 34 -19 40 -3 4 10 -2 15 -19 15 -14 0 -23 -5 -21 -12z" id="path30"/>
    <path d="M213 495 c5 -14 29 -13 34 2 3 7 -4 11 -16 10 -12 -1 -20 -6 -18 -12z" id="path32"/>
    <path d="M425 566 c-32 -32 -40 -69 -25 -107 26 -62 109 -74 150 -22 67 85 -49 204 -125 129z m106 -25 c43 -43 36 -91 -18 -119 -32 -17 -49 -15 -79 11 -44 38 -33 106 21 127 34 14 45 11 76 -19z" id="path34"/>
    <path d="M449 528 c-7 -29 -4 -68 5 -68 7 0 12 15 13 35 1 19 -3 35 -8 35 -5 0 -9 -1 -10 -2z" id="path36"/>
    <path d="M493 496 c2 -20 7 -35 12 -34 14 4 11 61 -3 66 -7 2 -10 -10 -9 -32z" id="path38"/>
    <path d="M646 545 c-3 -9 -6 -22 -5 -28 0 -7 5 -1 10 12 5 13 8 26 5 28 -2 2 -6 -3 -10 -12z" id="path40"/>
    <path d="M498 146 c-10 -7 -15 -16 -12 -19 9 -8 44 11 44 23 0 13 -12 12 -32 -4z" id="path42"/>
    <path d="M45 339 c-4 -6 -5 -12 -2 -15 2 -3 7 2 10 11 7 17 1 20 -8 4z" id="path44"/>
    <path d="M126 288 c3 -4 11 -5 19 -1 21 7 19 12 -4 10 -11 0 -18 -5 -15 -9z" id="path46"/>
  </g>
  <path d="m 37.639831,66.374605 c -2.326616,-1.084899 -5.16653,-3.779089 -6.34562,-6.020007 -1.391543,-2.644697 -1.224996,-6.062491 0.455828,-9.354268 2.80115,-5.485859 8.812906,-7.609206 14.532787,-5.132968 3.306412,1.431405 5.972017,5.205729 6.814699,9.649175 0.583666,3.077656 0.175625,4.279576 -2.38055,7.012136 -4.210901,4.501466 -8.785878,5.846947 -13.077144,3.845932 z m 3.019657,-6.58066 c 0.837424,-0.32135 0.755478,-1.566982 -0.134417,-2.043239 -1.10204,-0.589794 -3.321169,-0.4764 -4.002068,0.2045 -0.329601,0.3296 -0.599274,0.660563 -0.599274,0.735472 0,0.07491 0.269673,0.405872 0.599274,0.735472 0.599098,0.599099 2.981657,0.810944 4.136485,0.367795 l 0,0 z m 6.348634,-0.163295 c 1.596905,-0.854638 0.390873,-2.274718 -1.931851,-2.274718 -2.188876,0 -3.306302,1.117426 -2.211864,2.211865 0.561586,0.561586 3.138781,0.600678 4.143715,0.06285 z m -5.980329,-6.483709 c 0.486919,-0.45777 -2.060609,-2.655416 -3.078178,-2.655416 -1.469598,0 -2.332747,2.806711 -0.977157,3.177434 0.871707,0.238392 3.623246,-0.115796 4.055335,-0.522018 z m 5.878987,0.319161 c 0.679146,-0.679147 0.558309,-1.483502 -0.371561,-2.473303 -1.074382,-1.143628 -2.746693,-1.160216 -3.534781,-0.03506 -0.779865,1.113414 -0.752168,2.073059 0.07371,2.554092 0.921932,0.536976 3.278035,0.508866 3.832627,-0.04572 l 0,-2e-6 z" id="path3027" inkscape:connector-curvature="0" style="fill:&fill_color;;fill-opacity:1;stroke:&fill_color;;stroke-width:0.38135594;stroke-opacity:1" transform="scale(0.8,0.8)"/>
  <path d="M 8.1149297,84.622881 C 6.6736112,83.154661 5.2429683,81.438559 4.9357234,80.809322 4.0981425,79.093956 3.8322977,75.650926 4.1273706,70.340118 l 0.2647377,-4.764825 0.5696207,1.515318 c 0.4032398,1.072712 0.5616768,2.939396 0.542424,6.390781 -0.0256,4.589264 0.023758,4.92506 0.8408171,5.720339 0.4774075,0.464683 1.4138544,1.657453 2.0809931,2.650603 1.7001028,2.530884 2.2173258,2.72705 6.4127638,2.43214 3.850459,-0.27066 5.068053,0.04292 5.068053,1.305213 0,0.983662 0.243431,0.948608 2.035182,-0.293076 1.210316,-0.83875 1.930196,-1.042375 3.685157,-1.042375 1.75496,0 2.47484,0.203625 3.685156,1.042375 1.791334,1.241394 2.035183,1.276662 2.035183,0.294358 0,-1.10718 2.267388,-1.571091 7.12169,-1.457112 2.27057,0.05331 4.530247,-0.04594 5.021506,-0.220568 0.518366,-0.184264 1.195006,-0.982194 1.612388,-1.901414 1.141464,-2.513899 1.021973,-2.812565 -1.1448,-2.861379 C 41.923369,79.10465 41.28115,78.979225 32.682203,76.948284 20.747878,74.129583 10.889636,70.811161 8.7161842,68.880997 7.3920459,67.705074 6.5766197,65.338776 6.5676974,62.646269 c -0.00627,-1.89323 0.1498753,-2.65879 0.622271,-3.050847 0.8374024,-0.694979 12.8881196,-0.753472 14.0813646,-0.06835 0.522508,0.300009 0.949135,1.154868 1.252203,2.50912 0.595258,2.659893 2.734252,6.247388 5.278898,8.853708 3.647332,3.735733 6.802323,5.060704 12.888244,5.412558 6.478215,0.374534 11.452229,-1.508769 15.508171,-5.871836 3.48721,-3.751272 4.775735,-7.346033 5.263249,-14.683542 0.492964,-7.419489 1.224042,-8.882117 5.251149,-10.505683 3.958586,-1.595939 6.948393,-4.851551 8.762385,-9.541383 0.846782,-2.189238 0.975574,-3.057482 0.888899,-5.99239 -0.176995,-5.993143 -0.104511,-7.321836 0.515849,-9.455792 0.333335,-1.146635 0.930268,-2.485167 1.326516,-2.974515 0.652404,-0.805681 0.823748,-0.844182 1.813984,-0.407595 0.60144,0.265171 2.428292,1.374466 4.059675,2.4651 l 2.966148,1.982972 -0.105978,24.292571 c -0.06787,15.557293 -0.243111,24.423506 -0.487335,24.656697 -0.416018,0.397217 -5.006651,-0.413546 -5.578303,-0.985198 -0.307438,-0.307438 1.212986,-7.982325 1.755091,-8.859475 0.134939,-0.21833 1.007463,-0.396968 1.93894,-0.396968 1.881,0 2.026907,-0.236117 0.973472,-1.57534 -0.815137,-1.036281 -1.562717,-3.432184 -1.565886,-5.018492 -0.0011,-0.585294 0.383118,-1.585243 0.853974,-2.222109 0.800177,-1.082296 0.865186,-1.616894 0.995202,-8.18371 0.141247,-7.134024 -0.167575,-8.712126 -1.020398,-5.214332 -0.242912,0.996292 -1.896975,8.462604 -3.675699,16.591805 -5.126034,23.427259 -6.517743,28.091585 -9.006655,30.185866 -1.23753,1.041312 -1.408153,1.076076 -4.347553,0.88581 -2.0493,-0.132651 -4.48616,-0.661858 -7.380419,-1.602793 -2.376523,-0.772612 -4.575512,-1.307067 -4.886645,-1.187672 -0.378206,0.145132 -0.526028,0.628734 -0.446004,1.459106 0.09296,0.964575 0.398937,1.381507 1.369728,1.866401 1.205031,0.601894 0.930478,0.633181 -7.627119,0.869149 -4.882431,0.13463 -15.445453,0.282687 -23.473378,0.329018 l -14.596229,0.08424 -2.6205793,-2.669492 0,0 z M 64.054041,73.705511 c 1.732035,-0.83846 2.648414,-2.129155 2.249584,-3.16848 -0.342301,-0.892026 -1.425523,-0.725316 -3.392527,0.522118 -3.903323,2.475416 -2.969653,4.637239 1.142943,2.646362 z M 81.932057,22.709755 c 0.398311,-1.369518 0.467146,-2.166485 0.209387,-2.424243 -0.560925,-0.560927 -1.527498,1.097897 -1.946463,3.34051 -0.663198,3.549916 0.637711,2.863718 1.737076,-0.916267 z" id="path3029" inkscape:connector-curvature="0" style="fill:&fill_color;;fill-opacity:1;stroke:&fill_color;;stroke-width:0.38135594;stroke-opacity:1" transform="scale(0.8,0.8)"/>
  <path d="M 18,81.757011 C 15.587924,81.609601 12.907467,81.292582 12.043429,81.052525 8.8906381,80.17658 7.574173,78.312395 7.7767646,75.010701 l 0.1173032,-1.911724 13.1567792,3.765069 c 7.236229,2.070788 13.843221,3.964248 14.682204,4.20769 l 1.525424,0.44262 -1.144068,0.269736 C 34.666057,82.125568 23.764009,82.109269 18,81.757011 z" id="path3031" inkscape:connector-curvature="0" style="fill:&fill_color;;fill-opacity:1;stroke:&fill_color;;stroke-width:0.38135594;stroke-opacity:1" transform="scale(0.8,0.8)"/>
  <path d="M 7.9071925,84.421525 C 6.3398998,82.810983 4.8712736,81.003272 4.6435788,80.404391 4.0499298,78.842975 3.8004446,72.586789 4.1806819,68.79661 l 0.3251954,-3.241525 0.5176543,1.716101 c 0.3009435,0.997673 0.531207,3.631912 0.5500275,6.292373 l 0.032373,4.576272 1.6218387,2.097457 c 0.8920114,1.153602 2.0831213,2.591665 2.6469111,3.19569 l 1.0250731,1.098237 3.734108,-0.257183 c 3.859416,-0.265813 5.272917,0.03576 5.272917,1.124977 0,0.779744 0.450767,0.704586 2.553973,-0.425822 2.334278,-1.254604 4.725618,-1.124691 6.999779,0.380281 1.514977,1.002562 1.570353,1.010837 1.765691,0.26386 0.310916,-1.188942 2.296948,-1.613578 7.04817,-1.506985 2.377685,0.05334 4.705797,-0.03451 5.17358,-0.195239 0.838853,-0.288218 2.541707,-3.416408 2.282709,-4.193401 -0.06937,-0.208095 -0.974326,-0.444078 -2.011027,-0.524414 -4.378297,-0.33927 -21.037448,-4.543567 -28.982,-7.314228 -6.1952714,-2.160603 -8.1783333,-4.396794 -8.1783333,-9.222258 0,-1.89985 0.1593787,-2.674205 0.630921,-3.065381 0.4808006,-0.398853 2.1909375,-0.523388 7.1872953,-0.523388 7.304266,0 7.631754,0.09859 8.044397,2.421793 0.404411,2.276863 2.854631,6.545094 5.191097,9.042784 2.579461,2.757452 5.525606,4.421018 9.339368,5.273547 6.467055,1.445651 13.413209,-0.08078 17.691855,-3.887833 3.907487,-3.476795 6.231299,-8.453189 6.623951,-14.185037 0.39373,-5.74765 0.639491,-7.406747 1.327526,-8.961864 0.836169,-1.889942 1.597935,-2.546308 4.027149,-3.46993 2.392708,-0.909743 6.570004,-4.926811 7.894537,-7.591728 1.58617,-3.191319 1.949972,-5.17059 1.735227,-9.440565 -0.108,-2.147506 -0.03795,-4.91204 0.155647,-6.143408 0.381744,-2.427951 1.568905,-5.115217 2.400788,-5.434441 0.631693,-0.242402 2.211082,0.550438 5.644411,2.833448 l 2.593441,1.724523 -0.106093,24.324808 c -0.0679,15.568643 -0.24337,24.460048 -0.487449,24.700505 -0.421795,0.415536 -4.970612,-0.389079 -5.566088,-0.984555 -0.346519,-0.346519 0.836001,-6.728846 1.558319,-8.410606 0.304509,-0.708975 0.668105,-0.858051 2.092813,-0.858051 0.948352,0 1.724278,-0.102215 1.724278,-0.227147 0,-0.124933 -0.323745,-0.682666 -0.719432,-1.239407 -1.507447,-2.12101 -2.007587,-5.806227 -0.94704,-6.978118 0.768844,-0.849562 1.236615,-4.9837 1.264553,-11.176091 0.01403,-3.107353 -0.103591,-4.433048 -0.369682,-4.166957 -0.214639,0.214636 -2.019551,7.756903 -4.010919,16.760594 -5.652633,25.557588 -6.748387,29.285544 -9.254677,31.486098 -1.334029,1.171289 -1.406311,1.187374 -4.432779,0.986369 -1.923647,-0.127762 -4.718509,-0.707163 -7.457808,-1.546078 -4.653221,-1.425058 -5.343403,-1.37928 -5.343403,0.354425 0,0.651032 0.389147,1.097226 1.416707,1.624397 l 1.416711,0.726815 -8.185779,0.231296 c -4.502173,0.127213 -15.092503,0.289091 -23.534061,0.359729 L 10.756816,87.349786 7.9071925,84.421525 z M 63.572034,73.799722 c 2.041566,-0.937491 3.000779,-2.052534 2.667909,-3.10132 -0.210204,-0.662286 -0.453615,-0.774019 -1.25052,-0.574006 -2.011019,0.504732 -4.277559,2.46669 -4.277559,3.70273 0,0.879918 0.90315,0.871265 2.86017,-0.02742 l 0,1.6e-5 z M 81.63635,23.453686 c 0.494309,-1.48519 0.567949,-3.089279 0.141826,-3.089279 -0.593623,0 -1.285437,1.645613 -1.49522,3.55666 -0.192147,1.750376 -0.152352,1.908455 0.352681,1.400967 0.313097,-0.314619 0.763418,-1.155375 1.000713,-1.868348 l 0,0 z" id="path3033" inkscape:connector-curvature="0" style="fill:&fill_color;;fill-opacity:1;stroke:&fill_color;;stroke-width:0.38135594;stroke-opacity:1" transform="scale(0.8,0.8)"/>
  <path d="m 4.4456778,57.975804 c -0.355037,-1.89251 -0.4351479,-17.64517 -0.091489,-17.990043 0.1505241,-0.151056 1.6686488,1.03764 3.3736106,2.641545 3.4310176,3.227655 7.0164486,5.534406 10.4250376,6.707133 2.842414,0.977933 3.27986,1.354954 3.27724,2.824544 -0.0027,1.504173 -0.670918,3.952451 -1.16155,4.255678 -0.204997,0.126695 -1.300914,0.03766 -2.43537,-0.197849 -1.134456,-0.235512 -2.924881,-0.447844 -3.978722,-0.471848 l -1.916075,-0.04365 0.742684,-1.043004 c 1.137517,-1.597495 0.963926,-1.894388 -0.953933,-1.631516 -1.334135,0.182864 -1.9906047,0.05909 -3.0726453,-0.579329 -1.8970721,-1.1193 -2.4764995,-1.047951 -2.4764995,0.304951 0,1.228909 0.7009649,2.123343 1.9829254,2.530221 0.7716096,0.2449 0.7272118,0.319772 -0.5904915,0.995794 -0.7836587,0.402041 -1.7483119,1.2629 -2.1436739,1.913021 L 4.7078862,59.37349 4.4456779,57.975799 z M 18.584283,54.133866 c 1.874264,-0.783118 1.647556,-1.354205 -0.537588,-1.354205 -2.011985,0 -3.04079,0.666922 -2.249485,1.458227 0.588059,0.588059 1.183915,0.56582 2.787073,-0.104022 l 0,0 z M 6.6753558,48.298729 C 7.0290179,47.425158 7.1180321,46.7266 6.9040974,46.503632 6.3929645,45.970915 5.478213,47.030545 5.1854192,48.494514 c -0.3577189,1.788595 0.7452437,1.64366 1.4899366,-0.195785 z" id="path3035" inkscape:connector-curvature="0" style="fill:&fill_color;;fill-opacity:1;stroke:&fill_color;;stroke-width:0.38135594;stroke-opacity:1" transform="scale(0.8,0.8)"/>
  <path d="M 40.113856,71.290651 C 35.756166,70.406683 30.066599,66.233544 26.192282,61.079564 22.55112,56.235749 22.092741,54.086533 23.925917,50.453211 c 1.62239,-3.215555 3.098322,-5.06099 5.741959,-7.179468 3.677547,-2.947001 3.128874,-4.182195 -0.847224,-1.907302 -2.823146,1.61524 -5.386474,1.841278 -8.778705,0.774122 -2.844443,-0.894833 -4.640543,-2.013418 -9.094406,-5.663868 -2.9922377,-2.452481 -3.6255071,-2.774868 -3.6255071,-1.845686 0,1.879181 7.7564771,8.82916 12.3940681,11.105366 2.404161,1.18 2.547724,1.310862 1.44439,1.316586 -3.346336,0.01735 -9.668527,-3.733253 -14.3421005,-8.508414 L 3.7832692,35.443451 4.0425719,27.236556 C 4.4354569,14.801797 4.84673,11.049504 6.0909307,8.548142 6.920919,6.8795197 7.4843279,6.2782192 8.8764922,5.5752404 10.589659,4.7101704 10.942466,4.6875513 28.134967,4.3405429 37.767303,4.1461266 53.514324,3.9823434 63.128345,3.9765802 l 17.480044,-0.010479 2.499476,2.3834746 c 3.098711,2.9548968 3.956934,4.7705392 4.176274,8.8352882 0.214425,3.973598 -0.168139,4.626862 -1.801014,3.075387 -1.550014,-1.472745 -2.652617,-3.641629 -2.652617,-5.217857 l 0,-1.250702 0.987689,1.065178 c 0.543231,0.585849 1.174508,1.002907 1.402841,0.926796 0.66134,-0.220447 1.182924,-1.27229 0.942102,-1.899868 -0.218136,-0.568454 -5.77522,-2.5787138 -7.128492,-2.5787138 -0.383858,0 -1.595429,0.8069388 -2.692388,1.7931968 l -1.994465,1.793196 -1.459198,-0.839807 c -2.004017,-1.153366 -2.139258,-1.064352 -0.896815,0.590278 1.897322,2.526775 2.134392,2.542935 4.735357,0.32279 2.216376,-1.891865 3.210033,-2.291419 3.832704,-1.541148 0.757331,0.912531 0.250032,1.838912 -1.163841,2.125286 -0.870815,0.17638 -1.812821,0.809213 -2.719003,1.826604 -0.762609,0.856197 -1.603518,1.556722 -1.868686,1.556722 -0.265169,0 -1.786344,-0.832775 -3.380389,-1.850611 -4.649861,-2.96905 -6.741862,-3.622646 -11.669449,-3.645846 -3.773327,-0.01776 -4.415675,0.08303 -6.391533,1.002904 -2.351098,1.094572 -6.516298,4.116426 -7.092092,5.145317 -0.307464,0.549403 -0.463736,0.50153 -1.296679,-0.397232 l -0.947086,-1.021922 -0.256793,2.004458 c -0.3529,2.754632 -1.398658,6.415816 -1.767467,6.187879 C 41.493543,24.039923 40.5,19.002389 40.5,16.717125 c 0,-2.100467 0.02712,-2.156787 0.95339,-1.97972 0.524364,0.100239 0.95339,0.03702 0.95339,-0.140491 0,-0.912982 -2.556822,-4.280036 -4.123303,-5.4299388 C 34.43165,6.3394742 30.015513,4.9924204 24.483051,4.9574324 18.326106,4.9184951 14.944313,6.1595545 10.754237,9.9956689 8.5439029,12.019283 5.4261518,16.307508 5.8540881,16.735444 c 0.089878,0.08988 1.3455321,-0.858744 2.7903429,-2.108049 2.539357,-2.19574 3.834783,-2.853871 3.403097,-1.728915 -0.114507,0.298402 -0.445364,0.633558 -0.735238,0.744794 -0.7481,0.287072 -2.3028206,3.507001 -3.0087764,6.231374 -0.8102848,3.126993 -0.7549032,6.009996 0.1731711,9.014751 1.2201468,3.950376 3.8314743,7.052351 7.9707643,9.468406 2.743029,1.601075 5.546457,1.754716 16.076186,0.881056 4.444037,-0.368725 9.480799,-0.583021 11.192805,-0.476213 3.576554,0.223134 4.820861,0.749422 9.845149,4.164069 1.83536,1.247361 4.293897,2.691106 5.463416,3.208324 1.251313,0.55339 2.058914,1.133256 1.962408,1.409034 -0.0902,0.257751 -0.437549,0.420269 -0.771891,0.361156 -1.045335,-0.184828 -1.397132,1.214843 -1.624771,6.46441 -0.307693,7.095661 -0.576995,7.709625 -4.981774,11.357611 -5.984646,4.956418 -9.44828,6.38431 -13.495121,5.563399 l 0,0 z m 8.203941,-3.527954 c 2.016762,-1.073994 5.346335,-4.518721 6.084499,-6.294939 0.324076,-0.779812 0.588993,-2.324304 0.588707,-3.432204 -3.81e-4,-2.066724 -0.800748,-7.093964 -1.500315,-9.425551 -0.216096,-0.720217 -0.319908,-1.382476 -0.230698,-1.471687 0.08921,-0.08921 0.696791,0.218464 1.350179,0.683718 1.672445,1.190887 1.821498,0.705055 0.346714,-1.130114 -1.552241,-1.93156 -4.593154,-3.980803 -8.137468,-5.483773 -4.078034,-1.729293 -7.125514,-1.667454 -10.955832,0.222313 -4.08275,2.014309 -5.846621,3.830044 -6.454423,6.644203 -0.679309,3.145237 -0.693701,12.634944 -0.02096,13.817227 0.71188,1.251057 3.386139,4.11313 4.751935,5.08566 2.132079,1.518174 3.643943,1.831138 8.26664,1.711236 3.598089,-0.09333 4.659509,-0.25962 5.911017,-0.926089 l 0,0 z m -0.95339,-53.133822 c 0,-0.218101 -0.343221,-1.069316 -0.762712,-1.891587 -0.788282,-1.545163 -1.031328,-3.8135592 -0.408596,-3.8135592 0.43687,0 1.41094,0.9546079 2.194825,2.1509662 0.324294,0.494935 0.90707,0.899881 1.295062,0.899881 0.809089,0 1.590449,-1.214255 1.288201,-2.0019041 -0.123079,-0.3207306 0.180126,-0.7067738 0.764077,-0.9728405 0.532469,-0.2426087 0.968126,-0.6163962 0.968126,-0.8306386 0,-0.4769283 0.762902,-0.3760894 -5.642714,-0.7458429 -2.998621,-0.1730902 -5.571343,-0.4340164 -5.717162,-0.5798359 -0.14582,-0.1458195 0.03376,-0.4323926 0.399069,-0.6368291 1.063072,-0.5949247 0.770603,-1.0965154 -0.639359,-1.0965154 -3.248015,0 -3.2623,0.9087028 -0.07305,4.6464883 3.499676,4.1015982 6.33423,6.2819052 6.33423,4.8722172 z M 68.459099,10.031014 C 68.794055,8.7501402 68.36612,8.1977225 66.689111,7.7461505 64.683305,7.2060428 56.338528,7.4240481 55.730204,8.0324497 c -0.97957,0.9796961 0.107836,1.272635 4.7241,1.272635 3.898953,0 4.870884,0.1203289 5.983849,0.7408243 1.69436,0.944631 1.77017,0.944073 2.020946,-0.0149 l 0,1e-6 z m 6.949926,-1.1196979 c 0.934512,-0.7755766 0.660516,-1.513011 -0.562165,-1.513011 -1.810129,0 -3.075674,0.6444416 -3.075674,1.5661975 0,0.740618 0.153119,0.801826 1.540381,0.6157552 0.847209,-0.1136345 1.791065,-0.4146582 2.097458,-0.6689417 l 0,0 z" id="path3037" inkscape:connector-curvature="0" style="fill:&fill_color;;fill-opacity:1;stroke:&fill_color;;stroke-width:0.38135594;stroke-opacity:1" transform="scale(0.8,0.8)"/>
  <path d="M 21.482443,37.877183 C 18.879646,37.365666 16.454375,36.01801 14.36355,33.921413 12.144095,31.695831 11.279823,30.051147 10.705297,26.959866 8.8805576,17.141713 17.29635,8.3498717 26.859571,10.08376 c 6.149577,1.114968 10.214239,4.622683 11.882713,10.254524 1.003784,3.388219 0.815176,5.922507 -0.66971,8.998746 -3.160682,6.547984 -9.671876,9.899771 -16.590131,8.540153 l 0,0 z m 0.519818,-8.221567 c 0.896757,-0.344118 1.467024,-2.00097 0.916869,-2.663867 -0.601967,-0.725325 -4.296226,-0.704167 -4.903942,0.02809 -1.304711,1.572081 1.656905,3.529951 3.987073,2.635781 l 0,0 z m 8.649151,-0.983205 c 0.175482,-0.269615 0.275173,-0.833428 0.221535,-1.252919 -0.07446,-0.582312 -0.431955,-0.79048 -1.511463,-0.880109 -2.519583,-0.209197 -3.718109,1.032564 -2.333252,2.41742 0.729682,0.729683 3.0834,0.544933 3.62318,-0.284392 z m -8.922707,-7.757595 c 1.612503,-1.12944 0.618855,-3.601257 -1.447672,-3.601257 -1.188046,0 -3.133751,1.729809 -2.960077,2.631627 0.132656,0.68883 1.672688,1.549565 2.786987,1.557667 0.425258,0.0031 1.154601,-0.261525 1.620762,-0.588037 l 0,0 z m 8.499756,0.198885 c 1.804737,-0.965866 0.254481,-3.418786 -2.160688,-3.418786 -1.492692,0 -2.225068,0.813031 -1.899796,2.109015 0.363088,1.44666 2.510449,2.139324 4.060484,1.309771 z" id="path3039" inkscape:connector-curvature="0" style="fill:&fill_color;;fill-opacity:1;stroke:&fill_color;;stroke-width:0.38135594;stroke-opacity:1" transform="scale(0.8,0.8)"/>
  <path d="m 56.853515,41.375384 c -3.196532,-1.022555 -6.346518,-2.96902 -8.981502,-5.54992 -4.011695,-3.929356 -4.450328,-7.692283 -1.579981,-13.554278 3.159268,-6.452048 9.93117,-9.878819 16.667382,-8.434161 5.911527,1.267796 11.613589,6.433881 10.295183,9.327467 -0.321376,0.705344 -0.276001,1.560754 0.19192,3.618043 1.77024,7.783151 -0.616468,11.887292 -8.446924,14.525181 -2.852043,0.960784 -5.290845,0.981043 -8.146078,0.06767 l 0,0 z m 8.906248,-3.198922 c 1.951754,-1.143805 3.363443,-2.67753 4.594991,-4.992215 1.209438,-2.273129 1.186506,-7.319701 -0.04463,-9.820905 -1.268455,-2.577028 -3.134738,-4.584892 -5.457194,-5.871194 -1.756099,-0.972621 -2.446003,-1.131869 -4.90378,-1.13192 -2.431746,-5e-5 -3.12671,0.156628 -4.639594,1.045983 -8.929011,5.248954 -8.279692,18.008859 1.094004,21.498504 0.943233,0.351147 2.524074,0.495541 4.534105,0.414146 2.51359,-0.101786 3.407988,-0.313678 4.822095,-1.142399 z" id="path3041" inkscape:connector-curvature="0" style="fill:&fill_color;;fill-opacity:1;stroke:&fill_color;;stroke-width:0.38135594;stroke-opacity:1" transform="scale(0.8,0.8)"/>
  <path d="m 56.665505,37.295899 c -4.870313,-3.257939 -6.697848,-7.937347 -4.763392,-12.196683 1.26632,-2.788217 4.828895,-5.343057 8.053736,-5.775598 3.771185,-0.505823 9.49587,5.589853 9.518827,10.135697 0.01591,3.149507 -2.286851,6.07241 -6.230775,7.908762 -2.611755,1.216074 -4.686611,1.193308 -6.578396,-0.07218 l 0,0 z m 1.266328,-5.875548 c 0.629724,-1.244654 0.640619,-6.5159 0.0152,-7.354223 -0.306908,-0.411386 -0.771952,-0.560043 -1.305664,-0.417372 -0.720115,0.192501 -0.862689,0.581442 -1.085761,2.961956 -0.444937,4.748146 0.964246,7.600427 2.376225,4.809639 l -10e-7,0 z m 6.364191,-2.851601 c -0.02665,-1.945456 -0.237405,-3.129648 -0.676164,-3.799279 -0.72166,-1.101393 -1.57012,-1.265267 -1.913805,-0.369637 -0.625963,1.631235 0.115606,7.293925 1.029162,7.858771 1.004199,0.620891 1.60055,-0.788922 1.560807,-3.689855 l 0,0 z" id="path3043" inkscape:connector-curvature="0" style="fill:&fill_color;;fill-opacity:1;stroke:&fill_color;;stroke-width:0.38135594;stroke-opacity:1" transform="scale(0.8,0.8)"/>
  <path d="m 78.212025,81.858051 c -0.15939,-1.079967 1.582131,-9.008139 2.090396,-9.516404 0.503211,-0.503212 1.37657,0.350031 1.740079,1.700001 0.580812,2.156971 -0.350276,4.844218 -2.443989,7.053691 -1.033373,1.090507 -1.315225,1.245555 -1.386486,0.762712 z" id="path3045" inkscape:connector-curvature="0" style="fill:&fill_color;;fill-opacity:1;stroke:&fill_color;;stroke-width:0.38135594;stroke-opacity:1" transform="scale(0.8,0.8)"/>
  <path d="m 75.298729,87.074369 c -0.471928,-0.181199 -0.858051,-0.514393 -0.858051,-0.740431 0,-0.711017 1.836664,-2.283091 2.66735,-2.283091 0.437381,0 1.461446,-0.339873 2.2757,-0.755275 C 80.946357,82.498378 85.5,78.487318 85.5,77.908076 c 0,-0.187154 -0.34322,-0.6835 -0.762712,-1.102991 -0.972133,-0.972133 -0.975882,-2.456321 -0.0086,-3.423554 2.357589,-2.35759 3.492592,3.353291 1.554523,7.821745 -0.829723,1.91303 -2.58541,3.423595 -5.550111,4.77523 -2.704934,1.233204 -4.259927,1.546777 -5.434322,1.095863 z" id="path3047" inkscape:connector-curvature="0" style="fill:&fill_color;;fill-opacity:1;stroke:&fill_color;;stroke-width:0.38135594;stroke-opacity:1" transform="scale(0.8,0.8)"/>
  <path d="m 36.68644,36.741315 c 0,-0.221515 0.863485,-1.465688 1.918855,-2.764831 1.204768,-1.483048 2.154801,-3.14263 2.552875,-4.459534 l 0.634021,-2.097458 0.461363,1.90678 c 0.25375,1.048728 0.477837,2.807733 0.497972,3.908898 l 0.03661,2.002119 -1.458948,0 c -1.06313,0 -1.701944,0.258658 -2.354611,0.953389 -0.903758,0.962007 -2.288136,1.295155 -2.288136,0.550637 z" id="path3013" inkscape:connector-curvature="0" style="fill:&fill_color;;fill-opacity:1;stroke:&fill_color;;stroke-width:0.38135594;stroke-opacity:1" transform="scale(0.8,0.8)"/>
</svg>